<svg width="318" height="64" viewBox="0 0 318 64" fill="none" xmlns="http://www.w3.org/2000/svg">
<path d="M79.9551 54V10H96.8781C99.5302 10 101.888 10.5238 103.95 11.5714C106.055 12.5771 107.718 14.0229 108.939 15.9086C110.16 17.7943 110.77 20.0781 110.77 22.76V23.5771C110.77 26.2171 110.139 28.501 108.876 30.4286C107.655 32.3143 105.992 33.76 103.887 34.7657C101.782 35.7714 99.446 36.2743 96.8781 36.2743H85.2593V54H79.9551ZM85.2593 31.4971H96.3098C99.1303 31.4971 101.361 30.8057 103.003 29.4229C104.645 27.9981 105.466 26.0076 105.466 23.4514V22.8229C105.466 20.2667 104.645 18.2971 103.003 16.9143C101.403 15.4895 99.1724 14.7771 96.3098 14.7771H85.2593V31.4971Z" fill="#20E2E2"/>
<path d="M110.83 54L124.469 10H133.815L147.454 54H141.961L138.551 42.8743H119.733L116.323 54H110.83ZM121.059 38.0971H137.161L129.584 13.2057H128.7L121.059 38.0971Z" fill="#20E2E2"/>
<path d="M154.077 54V10H159.381V49.2229H181.735V54H154.077Z" fill="#20E2E2"/>
<path d="M185.075 54L198.714 10H208.06L221.699 54H216.206L212.796 42.8743H193.979L190.569 54H185.075ZM195.305 38.0971H211.407L203.829 13.2057H202.945L195.305 38.0971Z" fill="#20E2E2"/>
<path d="M226.239 54V49.2857H232.427V14.7143H226.239V10H243.477C249.287 10 253.77 11.4667 256.927 14.4C260.127 17.3333 261.726 21.8381 261.726 27.9143V36.0857C261.726 42.2038 260.127 46.7295 256.927 49.6629C253.77 52.5543 249.287 54 243.477 54H226.239ZM237.731 49.2229H243.477C247.771 49.2229 251.013 48.1752 253.202 46.08C255.391 43.9848 256.485 40.7371 256.485 36.3371V27.7257C256.485 23.2419 255.391 19.9733 253.202 17.92C251.013 15.8667 247.771 14.84 243.477 14.84H237.731V49.2229Z" fill="#20E2E2"/>
<path d="M270.193 54V10H275.497V54H270.193Z" fill="#20E2E2"/>
<path d="M285.61 54V10H295.902L311.31 50.6686H312.131V10H317.372V54H307.079L291.735 13.2686H290.851V54H285.61Z" fill="#20E2E2"/>
<path fill-rule="evenodd" clip-rule="evenodd" d="M12.2168 19.1807L32 9.55192V0C23.8125 0 15.6626 6.89316 12.2168 19.1807Z" fill="#107070"/>
<path fill-rule="evenodd" clip-rule="evenodd" d="M51.7832 19.1807L32 9.55192V0C40.1875 0 48.3374 6.89316 51.7832 19.1807Z" fill="#20E2E2"/>
<path fill-rule="evenodd" clip-rule="evenodd" d="M13.2275 42.8477C15.9463 50.2603 15.5372 58.6942 12 64H27.2051L13.2275 42.8477Z" fill="#107070"/>
<path fill-rule="evenodd" clip-rule="evenodd" d="M50.7725 42.8477C48.0537 50.2603 48.4628 58.6942 52 64H36.7949L50.7725 42.8477Z" fill="#20E2E2"/>
<path fill-rule="evenodd" clip-rule="evenodd" d="M32 16.2246V60.3726L54.074 26.9686L32 16.2246Z" fill="#20E2E2"/>
<path fill-rule="evenodd" clip-rule="evenodd" d="M31.9998 16.2246L9.92578 26.9686L31.9998 60.3726V16.2246Z" fill="#107070"/>
</svg>
